<svg preserveAspectRatio="none" overflow="visible" style="display: block;" width="14" height="14" viewBox="0 0 14 14" fill="none" xmlns="http://www.w3.org/2000/svg">
<g id="ti-map-pin-filled">
<path id="path" d="M10.7123 2.70433C11.6762 3.66807 12.2274 4.9689 12.2495 6.33174C12.2716 7.69458 11.7628 9.01259 10.8307 10.0071L10.7123 10.1296L8.23725 12.6041C7.9232 12.9179 7.50159 13.1007 7.05784 13.1153C6.61408 13.1299 6.18136 12.9753 5.84733 12.6828L5.76333 12.6041L3.28766 10.129C2.30309 9.14442 1.74996 7.80906 1.74996 6.41666C1.74996 5.02427 2.30309 3.6889 3.28766 2.70433C4.27224 1.71976 5.6076 1.16663 7 1.16663C8.39239 1.16663 9.72776 1.71976 10.7123 2.70433ZM7 4.66666C6.77018 4.66666 6.54262 4.71193 6.3303 4.79987C6.11798 4.88782 5.92506 5.01672 5.76256 5.17923C5.60006 5.34173 5.47115 5.53465 5.38321 5.74697C5.29526 5.95929 5.25 6.18685 5.25 6.41666C5.25 6.64648 5.29526 6.87404 5.38321 7.08636C5.47115 7.29868 5.60006 7.4916 5.76256 7.6541C5.92506 7.8166 6.11798 7.94551 6.3303 8.03345C6.54262 8.1214 6.77018 8.16666 7 8.16666C7.46413 8.16666 7.90925 7.98229 8.23743 7.6541C8.56562 7.32591 8.75 6.88079 8.75 6.41666C8.75 5.95253 8.56562 5.50741 8.23743 5.17923C7.90925 4.85104 7.46413 4.66666 7 4.66666Z" fill="black"/>
</g>
</svg>
